<?xml version="1.0" standalone="no"?>
<!DOCTYPE svg PUBLIC "-//W3C//DTD SVG 20010904//EN"
 "http://www.w3.org/TR/2001/REC-SVG-20010904/DTD/svg10.dtd">
<svg version="1.0" xmlns="http://www.w3.org/2000/svg"
 width="512.000000pt" height="512.000000pt" viewBox="0 0 512.000000 512.000000"
 preserveAspectRatio="xMidYMid meet">
<metadata>
Created by potrace 1.14, written by Peter Selinger 2001-2017
</metadata>
<g transform="translate(0.000000,512.000000) scale(0.100000,-0.100000)"
fill="#000000" stroke="none">
<path d="M1315 4789 c-481 -49 -909 -340 -1134 -770 -107 -204 -155 -406 -155
-654 0 -222 36 -399 121 -587 l26 -58 617 0 617 0 128 278 c71 152 137 289
147 305 55 78 190 75 242 -5 8 -13 114 -331 237 -708 122 -377 225 -691 228
-697 4 -7 44 301 89 685 132 1105 142 1184 159 1219 21 46 75 76 131 75 48 0
82 -19 115 -64 12 -16 78 -237 163 -545 79 -285 145 -522 147 -527 2 -6 83
107 179 250 97 144 189 269 203 278 60 39 144 28 188 -24 14 -16 82 -139 153
-274 l129 -246 455 3 454 2 34 80 c278 662 28 1414 -595 1788 -413 249 -960
268 -1395 49 -127 -64 -224 -131 -340 -235 l-98 -88 -92 83 c-113 101 -195
161 -308 221 -259 139 -551 196 -845 166z"/>
<path d="M2817 2913 c-3 -21 -51 -427 -107 -903 -76 -642 -106 -874 -119 -899
-47 -94 -165 -108 -240 -28 -17 19 -96 251 -297 868 -150 463 -275 843 -277
845 -2 2 -30 -53 -62 -123 -84 -186 -100 -212 -148 -234 -40 -17 -75 -19 -609
-19 -313 0 -568 -4 -568 -8 0 -10 2074 -2063 2098 -2076 31 -18 84 -24 119
-14 28 8 238 210 1057 1020 561 556 1034 1026 1049 1044 l28 34 -393 0 c-236
0 -408 4 -430 10 -53 15 -82 55 -183 248 -49 94 -92 172 -95 172 -3 0 -87
-123 -188 -273 -215 -319 -210 -313 -256 -332 -68 -29 -140 -9 -176 49 -11 18
-58 171 -105 341 -47 170 -87 311 -89 312 -2 2 -6 -13 -9 -34z"/>
</g>
</svg>
